<svg xmlns="http://www.w3.org/2000/svg"><symbol id="super-dome" viewBox="0 0 256 256"><path d="M97.8 156.2h19.9v12.51H97.8zm23.8 0h12.7v12.51h-12.7zm16.7 0h19.9v12.51h-19.9zM128 73.4c-23.2 0-42.7 14.1-43.7 39.7h87.4c-1-25.6-20.5-39.7-43.7-39.7zm-46.9 82.8h12.7v12.51H81.1zm-11.9-4h117.6v-35.1H69.2zm57.8-13.5h48.5a2 2 0 0 1 0 4H127a2 2 0 0 1 0-4z"/><path d="M128 7.1L23.3 67.6v120.8L128 248.9l104.7-60.5V67.6zm62.7 147.1a1.9 1.9 0 0 1-1.9 2h-10v12.5h10a2 2 0 0 1 0 4H67.2a2 2 0 0 1 0-4h10v-12.5h-10a1.8 1.8 0 0 1-1.9-2v-39.1a1.8 1.8 0 0 1 1.9-2h13.1c1-28.2 22.1-43.7 47.7-43.7s46.7 15.5 47.6 43.7h13.2a1.9 1.9 0 0 1 1.9 2z"/><path d="M162.1 156.2h12.7v12.51h-12.7z"/></symbol><symbol id="mecha-stilts" viewBox="0 0 256 256"><path d="M72.6 146.7H126v22.04H72.6zm53.4-18.9V87.7l-28.6 40.1H126zm4-44.3v44.3h54.8A59.1 59.1 0 0 0 130 83.5zm0 63.2h8.9v22.04H130zm-6-63c-25.4 1.6-46.6 20.1-52.8 44.1h21.3z"/><path d="M128 7.1L23.3 67.6v120.8L128 248.9l104.7-60.5V67.6zm85.6 139.6h-26.2v24a1.9 1.9 0 0 1-2 2H70.6a1.9 1.9 0 0 1-2-2v-24H42.4a2 2 0 0 1 0-4h14.9v-12.9a1.9 1.9 0 0 1 2-2H67a63.1 63.1 0 0 1 60.8-48.3h.8c29.4.2 53.8 20.9 60.4 48.3h7.7a1.9 1.9 0 0 1 2 2v12.9h14.9a2 2 0 0 1 0 4z"/><path d="M61.3 131.8h133.4v10.92H61.3zm81.6 14.9h40.5v22.04h-40.5z"/></symbol><symbol id="space-bubbles" viewBox="0 0 256 256"><path d="M99 148.6H85.9l-17.5 20.7 2.8 4 33.6-17.7-5.8-7zm-24.2-14.3h108.6v10.32H74.8zm94.9-3.9a47.7 47.7 0 0 0 2.4-15.1 43 43 0 0 0-86 0c0 5.2.4 10.5 2.4 15.1zm-81 38.3h27l-8.2-9.9-18.8 9.9zm68.3-20.1l-6 7 33.8 17.7 2.8-3.8-17.5-20.9H157z"/><path d="M128 7.1L23.3 67.6v120.8L128 248.9l104.7-60.5V67.6zm63.5 163.4L187 177a2.1 2.1 0 0 1-2.6.6l-9.5-4.9h-94l-9.5 4.9a2.2 2.2 0 0 1-2.6-.6l-4.5-6.5a2.1 2.1 0 0 1 .2-2.4l16.4-19.5h-8.1a1.8 1.8 0 0 1-2-1.9v-14.3a1.9 1.9 0 0 1 2-2h11.5a55.1 55.1 0 0 1-2.2-15.1 47.2 47.2 0 0 1 47.1-46.9c25.6 0 46.8 21.3 46.8 46.9a48.4 48.4 0 0 1-2.1 15.1h11.5a1.9 1.9 0 0 1 2 2v14.3a1.8 1.8 0 0 1-2 1.9h-10.1l16.2 19.5a2.1 2.1 0 0 1 0 2.4z"/><path d="M140.3 168.7h27l-18.9-9.9-8.1 9.9zm-36.1-20.1l16.6 20.1h14.3l16.7-20.1h-47.6z"/></symbol></svg>