<svg xmlns="http://www.w3.org/2000/svg"><symbol id="mecha-stilts" viewBox="0 0 256 256"><path d="M69.6 147.8h56.5v23.33H69.6zm56.5-20V85.3l-30.3 42.5h30.3zm4.2-46.9v46.9h58a62.4 62.4 0 0 0-58-46.9zm0 66.9h9.5v23.33h-9.5zM124 81.1c-26.9 1.7-49.4 21.2-55.9 46.7h22.5z"/><path d="M128.2 0L17.4 64v128l110.8 64 110.9-64V64zm90.6 147.8h-27.7v25.4a2 2 0 0 1-2.1 2.1H67.5a1.9 1.9 0 0 1-2.1-2.1v-25.4H37.6a2.3 2.3 0 0 1-2.1-2.1 2.3 2.3 0 0 1 2.1-2.1h15.8v-13.7a1.9 1.9 0 0 1 2.1-2.1h8.2A66.6 66.6 0 0 1 128 76.7c.2-.2.4-.2.8 0 31.2.2 57 22.1 64 51.1h8.1a2 2 0 0 1 2.2 2.1v13.7h15.7a2.2 2.2 0 0 1 2.1 2.1 2.3 2.3 0 0 1-2.1 2.1z"/><path d="M57.6 132h141.3v11.56H57.6zm86.4 15.8h42.9v23.33H144z"/></symbol><symbol id="super-dome" viewBox="0 0 256 256"><path d="M96 157.8h21v13.24H96zm25.3 0h13.5v13.24h-13.5zm17.6 0h21v13.24h-21zM128 70.2c-24.6 0-45.2 14.9-46.3 42h92.5c-1-27.1-21.6-42-46.2-42zm-49.6 87.6h13.5v13.24H78.4zm-12.6-4.2h124.4v-37.2H65.8zm61.1-14.3h51.3a2.2 2.2 0 0 1 0 4.3h-51.3a2.2 2.2 0 0 1 0-4.3z"/><path d="M128 0L17.1 64v128L128 256l110.9-64V64zm66.4 155.7a1.9 1.9 0 0 1-2.1 2.1h-10.5v13.3h10.5a2.2 2.2 0 0 1 2.1 2.1 2.3 2.3 0 0 1-2.1 2.1H63.7a2.3 2.3 0 0 1-2.1-2.1 2.2 2.2 0 0 1 2.1-2.1h10.5v-13.3H63.7a1.9 1.9 0 0 1-2.1-2.1v-41.4a2 2 0 0 1 2.1-2.1h13.8C78.6 82.4 100.9 66 128 66s49.4 16.4 50.4 46.2h13.9a2 2 0 0 1 2.1 2.1z"/><path d="M164.2 157.8h13.5v13.24h-13.5z"/></symbol><symbol id="super-dome" viewBox="0 0 256 256"><path d="M96 157.8h21v13.24H96zm25.3 0h13.5v13.24h-13.5zm17.6 0h21v13.24h-21zM128 70.2c-24.6 0-45.2 14.9-46.3 42h92.5c-1-27.1-21.6-42-46.2-42zm-49.6 87.6h13.5v13.24H78.4zm-12.6-4.2h124.4v-37.2H65.8zm61.1-14.3h51.3a2.2 2.2 0 0 1 0 4.3h-51.3a2.2 2.2 0 0 1 0-4.3z"/><path d="M128 0L17.1 64v128L128 256l110.9-64V64zm66.4 155.7a1.9 1.9 0 0 1-2.1 2.1h-10.5v13.3h10.5a2.2 2.2 0 0 1 2.1 2.1 2.3 2.3 0 0 1-2.1 2.1H63.7a2.3 2.3 0 0 1-2.1-2.1 2.2 2.2 0 0 1 2.1-2.1h10.5v-13.3H63.7a1.9 1.9 0 0 1-2.1-2.1v-41.4a2 2 0 0 1 2.1-2.1h13.8C78.6 82.4 100.9 66 128 66s49.4 16.4 50.4 46.2h13.9a2 2 0 0 1 2.1 2.1z"/><path d="M164.2 157.8h13.5v13.24h-13.5z"/></symbol><symbol id="mecha-stilts" viewBox="0 0 256 256"><path d="M69.6 147.8h56.5v23.33H69.6zm56.5-20V85.3l-30.3 42.5h30.3zm4.2-46.9v46.9h58a62.4 62.4 0 0 0-58-46.9zm0 66.9h9.5v23.33h-9.5zM124 81.1c-26.9 1.7-49.4 21.2-55.9 46.7h22.5z"/><path d="M128.2 0L17.4 64v128l110.8 64 110.9-64V64zm90.6 147.8h-27.7v25.4a2 2 0 0 1-2.1 2.1H67.5a1.9 1.9 0 0 1-2.1-2.1v-25.4H37.6a2.3 2.3 0 0 1-2.1-2.1 2.3 2.3 0 0 1 2.1-2.1h15.8v-13.7a1.9 1.9 0 0 1 2.1-2.1h8.2A66.6 66.6 0 0 1 128 76.7c.2-.2.4-.2.8 0 31.2.2 57 22.1 64 51.1h8.1a2 2 0 0 1 2.2 2.1v13.7h15.7a2.2 2.2 0 0 1 2.1 2.1 2.3 2.3 0 0 1-2.1 2.1z"/><path d="M57.6 132h141.3v11.56H57.6zm86.4 15.8h42.9v23.33H144z"/></symbol><symbol id="space-bubbles" viewBox="0 0 256 256"><path d="M94.1 149.9H80.2l-18.5 21.8 3 4.2 35.5-18.7-6.1-7.3zm-25.7-15.2h115v10.93h-115zm100.5-4.2a50.1 50.1 0 0 0 2.5-16 45.5 45.5 0 0 0-91 0c0 5.5.4 11.2 2.5 16zm-85.7 40.6h28.5l-8.6-10.5-19.9 10.5zm72.3-21.2l-6.3 7.3 35.7 18.7 2.9-4-18.5-22h-13.8z"/><path d="M124.8 0L13.9 64v128l110.9 64 110.8-64V64zm67.3 173l-4.9 6.9a2.2 2.2 0 0 1-2.7.7l-10.1-5.3H75l-10.1 5.3a2.4 2.4 0 0 1-2.8-.7l-4.8-6.9a2.2 2.2 0 0 1 .2-2.5L75 149.9h-8.7a2.1 2.1 0 0 1-2.1-2.1v-15.2a2.1 2.1 0 0 1 2.1-2.1h12.2a61.2 61.2 0 0 1-2.3-16A49.9 49.9 0 0 1 126 64.9c27.2 0 49.7 22.5 49.7 49.6a50.9 50.9 0 0 1-2.4 16h12.2a2 2 0 0 1 2.1 2.1v15.2a2 2 0 0 1-2.1 2.1h-10.7l17.3 20.6a2.3 2.3 0 0 1 0 2.5z"/><path d="M137.8 171.1h28.6l-20-10.5-8.6 10.5zm-38.2-21.2l17.6 21.2h15.1l17.7-21.2H99.6z"/></symbol></svg>